# xmcd CD database file
#
# Track frame offsets:
#	150
#	28772
#	49645
#	66735
#	83620
#	102910
#	118965
#	144082
#	157485
#	176570
#
# Disc length: 2569 seconds
#
# Revision: 5
# Processed by: cddbd v1.5.2PL0 Copyright (c) Steve Scherf et al.
# Submitted via: CDex 1.51
#
DISCID=8d0a070a
DTITLE=Kal David - Never A Dull Moment
DYEAR=1900
DGENRE=Blues
TTITLE0=Wishing Well
TTITLE1=A Nickel And A Nail
TTITLE2=Love Is Hurtin' Thing
TTITLE3=I Only Have Love For You
TTITLE4=Let's Make A Million Dollars
TTITLE5=Hang On In There
TTITLE6=Devil In Me
TTITLE7=Messin' With The Kid
TTITLE8=Lost Without You
TTITLE9=Fool For You
EXTD=
EXTT0=
EXTT1=
EXTT2=
EXTT3=
EXTT4=
EXTT5=
EXTT6=
EXTT7=
EXTT8=
EXTT9=
PLAYORDER=
